<?xml version="1.0" encoding="UTF-8"?>
<!DOCTYPE svg PUBLIC "-//W3C//DTD SVG 1.1//EN" "http://www.w3.org/Graphics/SVG/1.1/DTD/svg11.dtd">
<!-- Creator: CorelDRAW 2021 (64-Bit) -->
<svg xmlns="http://www.w3.org/2000/svg" xml:space="preserve" width="93.9862mm" height="93.9862mm" version="1.1" style="shape-rendering:geometricPrecision; text-rendering:geometricPrecision; image-rendering:optimizeQuality; fill-rule:evenodd; clip-rule:evenodd"
viewBox="0 0 1675.43 1675.43"
 xmlns:xlink="http://www.w3.org/1999/xlink"
 xmlns:xodm="http://www.corel.com/coreldraw/odm/2003">
 <defs>
  <style type="text/css">
   <![CDATA[
    .fil3 {fill:none;fill-rule:nonzero}
    .fil0 {fill:white}
    .fil4 {fill:black;fill-rule:nonzero}
    .fil5 {fill:#18966C;fill-rule:nonzero}
    .fil1 {fill:black;fill-rule:nonzero;fill-opacity:0.000000}
    .fil2 {fill:url(#id2);fill-rule:nonzero}
   ]]>
  </style>
    <clipPath id="id0" style="clip-rule:nonzero">
     <path d="M1081.18 889.94c-3.73,3.72 -7.44,8.68 -12.4,12.4 -62.01,62.01 -146.35,99.21 -239.36,99.21 -94.26,0 -178.59,-38.44 -239.36,-99.21 -62.01,-62.01 -99.22,-146.34 -99.22,-239.36 0,-94.26 38.45,-178.59 99.22,-239.36 62.01,-62.01 146.34,-99.21 239.36,-99.21 94.25,0 178.59,38.44 239.36,99.21 7.44,7.44 13.64,14.88 19.84,22.33l138.9 0c-75.65,-142.62 -225.72,-238.12 -398.11,-238.12 -250.52,0 -453.92,203.39 -453.92,453.92 0,250.52 203.39,453.92 453.92,453.92 167.43,0 315.01,-90.54 393.14,-226.96l-141.38 0 0 1.24zm0 0l0 0 0 0z"/>
    </clipPath>
    <clipPath id="id1" style="clip-rule:nonzero">
     <path d="M1081.18 889.94c-3.73,3.72 -7.44,8.68 -12.4,12.4 -62.01,62.01 -146.35,99.21 -239.36,99.21 -94.26,0 -178.59,-38.44 -239.36,-99.21 -62.01,-62.01 -99.22,-146.34 -99.22,-239.36 0,-94.26 38.45,-178.59 99.22,-239.36 62.01,-62.01 146.34,-99.21 239.36,-99.21 94.25,0 178.59,38.44 239.36,99.21 7.44,7.44 13.64,14.88 19.84,22.33l138.9 0c-75.65,-142.62 -225.72,-238.12 -398.11,-238.12 -250.52,0 -453.92,203.39 -453.92,453.92 0,250.52 203.39,453.92 453.92,453.92 167.43,0 315.01,-90.54 393.14,-226.96l-141.38 0 0 1.24zm0 0l0 0 0 0z"/>
    </clipPath>
  <radialGradient id="id2" gradientUnits="userSpaceOnUse" gradientTransform="matrix(1.57559 1.57559 -1.57559 1.57559 302 -1121)" cx="566.14" cy="398.47" r="417.6" fx="566.14" fy="398.47">
   <stop offset="0" style="stop-opacity:1; stop-color:white"/>
   <stop offset="0.368627" style="stop-opacity:1; stop-color:#05BCE4"/>
   <stop offset="1" style="stop-opacity:1; stop-color:#003478"/>
  </radialGradient>
 </defs>
 <g id="Layer_x0020_1">
  <metadata id="CorelCorpID_0Corel-Layer"/>
  <circle class="fil0" cx="837.72" cy="837.72" r="837.72"/>
  <g id="_2816160225936">
   <g style="clip-path:url(#id0)">
    <polygon class="fil1" points="375.5,207.82 1227.52,207.82 1227.52,1115.65 375.5,1115.65 "/>
   </g>
   <g style="clip-path:url(#id1)">
    <g>
     <polygon id="_1" class="fil2" points="375.5,1115.65 1283.33,1115.65 1283.33,207.82 375.5,207.82 "/>
    </g>
   </g>
   <path class="fil3" d="M1081.18 889.94c-3.73,3.72 -7.44,8.68 -12.4,12.4 -62.01,62.01 -146.35,99.21 -239.36,99.21 -94.26,0 -178.59,-38.44 -239.36,-99.21 -62.01,-62.01 -99.22,-146.34 -99.22,-239.36 0,-94.26 38.45,-178.59 99.22,-239.36 62.01,-62.01 146.34,-99.21 239.36,-99.21 94.25,0 178.59,38.44 239.36,99.21 7.44,7.44 13.64,14.88 19.84,22.33l138.9 0c-75.65,-142.62 -225.72,-238.12 -398.11,-238.12 -250.52,0 -453.92,203.39 -453.92,453.92 0,250.52 203.39,453.92 453.92,453.92 167.43,0 315.01,-90.54 393.14,-226.96l-141.38 0m0 1.24l0 0 0 0z"/>
   <g>
    <polygon class="fil4" points="681.84,562.52 634.71,562.52 634.71,774.59 681.84,774.59 "/>
    <path class="fil4" d="M896.39 693.98c0,57.05 -33.49,85.57 -90.54,85.57 -57.05,0 -90.54,-27.28 -90.54,-85.57l0 -131.46 47.13 0 0 131.46c0,23.56 6.2,45.89 43.41,45.89 33.49,0 43.41,-14.88 43.41,-45.89l0 -131.46 47.13 0 0 131.46z"/>
    <g>
     <path class="fil4" d="M1071.26 634.45c-2.48,-21.08 -23.56,-37.21 -45.89,-37.21 -42.17,0 -57.05,35.97 -57.05,73.17 0,35.96 16.12,70.69 57.05,70.69 28.53,0 44.64,-19.84 48.37,-47.13l44.64 0c-4.96,53.33 -40.93,86.82 -93.01,86.82 -65.73,0 -104.18,-49.61 -104.18,-110.38 0,-63.25 38.45,-111.62 104.18,-111.62 47.13,0 85.57,27.29 91.77,76.89l-45.89 0 0 -1.24zm0 0l0 0 0 0z"/>
    </g>
    <polygon class="fil4" points="1144.43,562.52 1190.32,562.52 1279.61,705.14 1279.61,562.52 1324.26,562.52 1324.26,774.59 1277.13,774.59 1189.08,633.21 1187.83,633.21 1187.83,774.59 1144.43,774.59 "/>
   </g>
   <path class="fil5" d="M320.18 1244.87l0 -40.52 22.16 0c15.77,0 22.76,7.59 22.76,20.36 0,12.38 -6.99,20.16 -22.76,20.16l-22.16 0zm73.66 -20.16c0,-24.15 -16.77,-43.12 -50.3,-43.12l-51.3 0 0 139.33 27.95 0 0 -53.5 23.35 0c35.93,0 50.3,-21.56 50.3,-42.72z"/>
   <path id="_1_0" class="fil5" d="M406.81 1251.05c0,41.72 30.54,71.06 70.66,71.06 30.94,0 56.09,-16.37 65.47,-45.11l-32.14 0c-6.59,13.57 -18.56,20.16 -33.53,20.16 -24.35,0 -41.72,-17.97 -41.72,-46.11 0,-28.34 17.37,-46.11 41.72,-46.11 14.97,0 26.95,6.59 33.53,19.96l32.14 0c-9.38,-28.55 -34.53,-45.11 -65.47,-45.11 -40.12,0 -70.66,29.54 -70.66,71.26z"/>
   <path id="_2" class="fil5" d="M661.52 1320.92l29.54 0 -50.1 -139.53 -32.54 0 -50.1 139.53 29.34 0 9.18 -26.55 55.49 0 9.18 26.55zm-16.77 -48.9l-40.32 0 20.16 -58.29 20.16 58.29z"/>
   <polygon id="_3" class="fil4" points="750.35,1196.56 788.47,1196.56 788.47,1320.92 806.64,1320.92 806.64,1196.56 844.56,1196.56 844.56,1181.79 750.35,1181.79 "/>
   <path id="_4" class="fil4" d="M970.72 1266.03c0,-34.53 -24.15,-56.29 -55.29,-56.29 -30.94,0 -55.29,21.76 -55.29,56.29 0,34.73 23.55,56.69 54.49,56.69 31.14,0 56.09,-21.96 56.09,-56.69zm-92.02 0c0,-27.55 17.37,-40.52 36.53,-40.52 18.76,0 36.93,12.98 36.93,40.52 0,27.74 -18.56,40.72 -37.53,40.72 -18.96,0 -35.93,-12.98 -35.93,-40.72z"/>
   <path id="_5" class="fil4" d="M1098.47 1266.03c0,-34.53 -24.15,-56.29 -55.29,-56.29 -30.94,0 -55.29,21.76 -55.29,56.29 0,34.73 23.55,56.69 54.49,56.69 31.14,0 56.09,-21.96 56.09,-56.69zm-92.02 0c0,-27.55 17.37,-40.52 36.53,-40.52 18.76,0 36.93,12.98 36.93,40.52 0,27.74 -18.56,40.72 -37.53,40.72 -18.96,0 -35.93,-12.98 -35.93,-40.72z"/>
   <polygon id="_6" class="fil4" points="1122.43,1320.92 1140.59,1320.92 1140.59,1173.21 1122.43,1173.21 "/>
   <polygon id="_7" class="fil4" points="1171.53,1320.92 1189.7,1320.92 1189.7,1272.61 1232.61,1320.92 1257.36,1320.92 1205.66,1266.03 1257.16,1211.53 1231.81,1211.53 1189.7,1260.04 1189.7,1173.21 1171.53,1173.21 "/>
   <path id="_8" class="fil4" d="M1274.33 1320.92l18.17 0 0 -109.39 -18.17 0 0 109.39zm9.38 -127.15c6.59,0 11.98,-5.39 11.98,-12.38 0,-6.99 -5.39,-12.38 -11.98,-12.38 -6.99,0 -12.38,5.39 -12.38,12.38 0,6.99 5.39,12.38 12.38,12.38z"/>
   <path id="_9" class="fil4" d="M1327.43 1290.98c0,21.96 10.98,29.94 30.34,29.94l16.37 0 0 -15.37 -13.37 0c-11.18,0 -15.17,-3.79 -15.17,-14.57l0 -64.48 28.55 0 0 -14.97 -28.55 0 0 -27.55 -18.16 0 0 27.55 -14.17 0 0 14.97 14.17 0 0 64.48z"/>
  </g>
 </g>
</svg>
