<?xml version="1.0" encoding="UTF-8"?>
<!DOCTYPE svg PUBLIC "-//W3C//DTD SVG 1.1//EN" "http://www.w3.org/Graphics/SVG/1.1/DTD/svg11.dtd">
<!-- Creator: CorelDRAW 2021 (64-Bit) -->
<svg xmlns="http://www.w3.org/2000/svg" xml:space="preserve" width="96.4332mm" height="96.4332mm" version="1.1" style="shape-rendering:geometricPrecision; text-rendering:geometricPrecision; image-rendering:optimizeQuality; fill-rule:evenodd; clip-rule:evenodd"
viewBox="0 0 10011.28 10011.28"
 xmlns:xlink="http://www.w3.org/1999/xlink"
 xmlns:xodm="http://www.corel.com/coreldraw/odm/2003">
 <defs>
  <style type="text/css">
   <![CDATA[
    .fil3 {fill:none;fill-rule:nonzero}
    .fil0 {fill:#212529}
    .fil5 {fill:#5AE6B8;fill-rule:nonzero}
    .fil4 {fill:white;fill-rule:nonzero}
    .fil1 {fill:black;fill-rule:nonzero;fill-opacity:0.000000}
    .fil2 {fill:url(#id2);fill-rule:nonzero}
   ]]>
  </style>
    <clipPath id="id0" style="clip-rule:nonzero">
     <path d="M6449.89 5362.5c-21.7,21.67 -43.34,50.56 -72.23,72.22 -361.13,361.13 -852.28,577.8 -1393.97,577.8 -548.93,0 -1040.08,-223.88 -1393.97,-577.8 -361.14,-361.13 -577.82,-852.26 -577.82,-1393.97 0,-548.93 223.9,-1040.06 577.82,-1393.98 361.11,-361.13 852.26,-577.8 1393.97,-577.8 548.9,0 1040.06,223.89 1393.97,577.8 43.34,43.34 79.43,86.68 115.57,130.02l808.92 0c-440.58,-830.6 -1314.51,-1386.75 -2318.45,-1386.75 -1458.97,0 -2643.48,1184.51 -2643.48,2643.48 0,1458.97 1184.51,2643.48 2643.48,2643.48 975.05,0 1834.54,-527.26 2289.56,-1321.74l-823.36 0 0 7.23zm0 0l0 0 0 0z"/>
    </clipPath>
    <clipPath id="id1" style="clip-rule:nonzero">
     <path d="M6449.89 5362.5c-21.7,21.67 -43.34,50.56 -72.23,72.22 -361.13,361.13 -852.28,577.8 -1393.97,577.8 -548.93,0 -1040.08,-223.88 -1393.97,-577.8 -361.14,-361.13 -577.82,-852.26 -577.82,-1393.97 0,-548.93 223.9,-1040.06 577.82,-1393.98 361.11,-361.13 852.26,-577.8 1393.97,-577.8 548.9,0 1040.06,223.89 1393.97,577.8 43.34,43.34 79.43,86.68 115.57,130.02l808.92 0c-440.58,-830.6 -1314.51,-1386.75 -2318.45,-1386.75 -1458.97,0 -2643.48,1184.51 -2643.48,2643.48 0,1458.97 1184.51,2643.48 2643.48,2643.48 975.05,0 1834.54,-527.26 2289.56,-1321.74l-823.36 0 0 7.23zm0 0l0 0 0 0z"/>
    </clipPath>
  <radialGradient id="id2" gradientUnits="userSpaceOnUse" gradientTransform="matrix(1.57559 1.57559 -1.57559 1.57559 1953 -6876)" cx="3450.46" cy="2500.31" r="2432" fx="3450.46" fy="2500.31">
   <stop offset="0" style="stop-opacity:1; stop-color:white"/>
   <stop offset="0.368627" style="stop-opacity:1; stop-color:#05BCE4"/>
   <stop offset="1" style="stop-opacity:1; stop-color:#003478"/>
  </radialGradient>
 </defs>
 <g id="Layer_x0020_1">
  <metadata id="CorelCorpID_0Corel-Layer"/>
  <circle class="fil0" cx="5005.64" cy="5005.64" r="5005.64"/>
  <g id="_2816451804352">
   <g style="clip-path:url(#id0)">
    <polygon class="fil1" points="2340.2,1390.05 7302.14,1390.05 7302.14,6677.01 2340.2,6677.01 "/>
   </g>
   <g style="clip-path:url(#id1)">
    <g>
     <polygon id="_1" class="fil2" points="2340.2,6677.01 7627.17,6677.01 7627.17,1390.05 2340.2,1390.05 "/>
    </g>
   </g>
   <path class="fil3" d="M6449.89 5362.5c-21.7,21.67 -43.34,50.56 -72.23,72.22 -361.13,361.13 -852.28,577.8 -1393.97,577.8 -548.93,0 -1040.08,-223.88 -1393.97,-577.8 -361.14,-361.13 -577.82,-852.26 -577.82,-1393.97 0,-548.93 223.9,-1040.06 577.82,-1393.98 361.11,-361.13 852.26,-577.8 1393.97,-577.8 548.9,0 1040.06,223.89 1393.97,577.8 43.34,43.34 79.43,86.68 115.57,130.02l808.92 0c-440.58,-830.6 -1314.51,-1386.75 -2318.45,-1386.75 -1458.97,0 -2643.48,1184.51 -2643.48,2643.48 0,1458.97 1184.51,2643.48 2643.48,2643.48 975.05,0 1834.54,-527.26 2289.56,-1321.74l-823.36 0m0 7.23l0 0 0 0z"/>
   <g>
    <polygon class="fil4" points="4124.23,3455.69 3849.76,3455.69 3849.76,4690.76 4124.23,4690.76 "/>
    <path class="fil4" d="M5373.73 4221.3c0,332.22 -195.01,498.35 -527.26,498.35 -332.24,0 -527.26,-158.88 -527.26,-498.35l0 -765.61 274.47 0 0 765.61c0,137.23 36.11,267.24 252.79,267.24 195.02,0 252.8,-86.68 252.8,-267.24l0 -765.61 274.46 0 0 765.61z"/>
    <g>
     <path class="fil4" d="M6392.1 3874.61c-14.45,-122.78 -137.23,-216.68 -267.24,-216.68 -245.58,0 -332.25,209.46 -332.25,426.14 0,209.44 93.9,411.68 332.25,411.68 166.13,0 260,-115.57 281.68,-274.47l260 0c-28.88,310.58 -238.35,505.59 -541.68,505.59 -382.81,0 -606.71,-288.91 -606.71,-642.81 0,-368.36 223.9,-650.04 606.71,-650.04 274.45,0 498.35,158.9 534.46,447.81l-267.22 0 0 -7.23zm0 0l0 0 0 0z"/>
    </g>
    <polygon class="fil4" points="6818.22,3455.69 7085.47,3455.69 7605.5,4286.3 7605.5,3455.69 7865.52,3455.69 7865.52,4690.76 7591.05,4690.76 7078.24,3867.39 7071.01,3867.39 7071.01,4690.76 6818.22,4690.76 "/>
   </g>
   <path class="fil5" d="M2018.05 7429.51l0 -235.98 129.03 0c91.84,0 132.53,44.17 132.53,118.58 0,72.07 -40.7,117.41 -132.53,117.41l-129.03 0zm428.96 -117.41c0,-140.67 -97.65,-251.1 -292.95,-251.1l-298.76 0 0 811.41 162.75 0 0 -311.55 136.01 0c209.25,0 292.95,-125.54 292.95,-248.76z"/>
   <path id="_1_0" class="fil5" d="M2522.57 7465.55c0,242.96 177.86,413.85 411.53,413.85 180.18,0 326.66,-95.32 381.29,-262.73l-187.16 0c-38.37,79.06 -108.11,117.42 -195.3,117.42 -141.82,0 -242.96,-104.63 -242.96,-268.54 0,-165.07 101.14,-268.53 242.96,-268.53 87.18,0 156.93,38.36 195.3,116.25l187.16 0c-54.64,-166.24 -201.11,-262.73 -381.29,-262.73 -233.67,0 -411.53,172.04 -411.53,415z"/>
   <path id="_2" class="fil5" d="M4005.91 7872.42l172.04 0 -291.78 -812.58 -189.48 0 -291.78 812.58 170.89 0 53.48 -154.61 323.17 0 53.48 154.61zm-97.65 -284.81l-234.82 0 117.41 -339.45 117.42 339.45z"/>
   <polygon id="_3" class="fil4" points="4523.21,7148.19 4745.25,7148.19 4745.25,7872.42 4851.03,7872.42 4851.03,7148.19 5071.91,7148.19 5071.91,7062.17 4523.21,7062.17 "/>
   <path id="_4" class="fil4" d="M5806.6 7552.74c0,-201.11 -140.66,-327.83 -322.02,-327.83 -180.18,0 -322.01,126.72 -322.01,327.83 0,202.26 137.17,330.14 317.35,330.14 181.36,0 326.67,-127.88 326.67,-330.14zm-535.91 0c0,-160.43 101.14,-235.99 212.73,-235.99 109.28,0 215.06,75.57 215.06,235.99 0,161.58 -108.11,237.15 -218.55,237.15 -110.43,0 -209.24,-75.57 -209.24,-237.15z"/>
   <path id="_5" class="fil4" d="M6550.6 7552.74c0,-201.11 -140.66,-327.83 -322.02,-327.83 -180.18,0 -322.01,126.72 -322.01,327.83 0,202.26 137.17,330.14 317.35,330.14 181.36,0 326.67,-127.88 326.67,-330.14zm-535.91 0c0,-160.43 101.14,-235.99 212.73,-235.99 109.28,0 215.06,75.57 215.06,235.99 0,161.58 -108.11,237.15 -218.55,237.15 -110.43,0 -209.24,-75.57 -209.24,-237.15z"/>
   <polygon id="_6" class="fil4" points="6690.09,7872.42 6795.88,7872.42 6795.88,7012.18 6690.09,7012.18 "/>
   <polygon id="_7" class="fil4" points="6976.07,7872.42 7081.85,7872.42 7081.85,7591.1 7331.79,7872.42 7475.94,7872.42 7174.85,7552.74 7474.78,7235.38 7327.14,7235.38 7081.85,7517.86 7081.85,7012.18 6976.07,7012.18 "/>
   <path id="_8" class="fil4" d="M7574.75 7872.42l105.79 0 0 -637.04 -105.79 0 0 637.04zm54.64 -740.51c38.36,0 69.75,-31.38 69.75,-72.07 0,-40.69 -31.39,-72.08 -69.75,-72.08 -40.69,0 -72.07,31.39 -72.07,72.08 0,40.69 31.38,72.07 72.07,72.07z"/>
   <path id="_9" class="fil4" d="M7883.98 7698.05c0,127.87 63.93,174.37 176.69,174.37l95.32 0 0 -89.51 -77.88 0c-65.1,0 -88.36,-22.09 -88.36,-84.86l0 -375.49 166.24 0 0 -87.18 -166.24 0 0 -160.43 -105.78 0 0 160.43 -82.54 0 0 87.18 82.54 0 0 375.49z"/>
  </g>
 </g>
</svg>
