<?xml version="1.0" encoding="UTF-8"?>
<!DOCTYPE svg PUBLIC "-//W3C//DTD SVG 1.1//EN" "http://www.w3.org/Graphics/SVG/1.1/DTD/svg11.dtd">
<!-- Creator: CorelDRAW 2021 (64-Bit) -->
<svg xmlns="http://www.w3.org/2000/svg" xml:space="preserve" width="127.91mm" height="52.966mm" version="1.1" style="shape-rendering:geometricPrecision; text-rendering:geometricPrecision; image-rendering:optimizeQuality; fill-rule:evenodd; clip-rule:evenodd"
viewBox="0 0 4295.72 1778.81"
 xmlns:xlink="http://www.w3.org/1999/xlink"
 xmlns:xodm="http://www.corel.com/coreldraw/odm/2003">
 <defs>
  <style type="text/css">
   <![CDATA[
    .fil3 {fill:none;fill-rule:nonzero}
    .fil0 {fill:#212529}
    .fil5 {fill:#5AE6B8;fill-rule:nonzero}
    .fil4 {fill:white;fill-rule:nonzero}
    .fil1 {fill:black;fill-rule:nonzero;fill-opacity:0.000000}
    .fil2 {fill:url(#id2);fill-rule:nonzero}
   ]]>
  </style>
    <clipPath id="id0" style="clip-rule:nonzero">
     <path d="M1383.72 1319.32c-7.02,7.01 -14.02,16.36 -23.37,23.36 -116.82,116.82 -275.71,186.91 -450.94,186.91 -177.57,0 -336.46,-72.42 -450.94,-186.91 -116.83,-116.82 -186.92,-275.7 -186.92,-450.94 0,-177.57 72.43,-336.45 186.92,-450.94 116.82,-116.82 275.7,-186.91 450.94,-186.91 177.57,0 336.45,72.43 450.94,186.91 14.02,14.02 25.7,28.04 37.39,42.06l261.68 0c-142.53,-268.69 -425.24,-448.61 -750.01,-448.61 -471.97,0 -855.15,383.18 -855.15,855.15 0,471.97 383.18,855.15 855.15,855.15 315.42,0 593.46,-170.57 740.66,-427.58l-266.35 0 0 2.34zm0 0l0 0 0 0z"/>
    </clipPath>
    <clipPath id="id1" style="clip-rule:nonzero">
     <path d="M1383.72 1319.32c-7.02,7.01 -14.02,16.36 -23.37,23.36 -116.82,116.82 -275.71,186.91 -450.94,186.91 -177.57,0 -336.46,-72.42 -450.94,-186.91 -116.83,-116.82 -186.92,-275.7 -186.92,-450.94 0,-177.57 72.43,-336.45 186.92,-450.94 116.82,-116.82 275.7,-186.91 450.94,-186.91 177.57,0 336.45,72.43 450.94,186.91 14.02,14.02 25.7,28.04 37.39,42.06l261.68 0c-142.53,-268.69 -425.24,-448.61 -750.01,-448.61 -471.97,0 -855.15,383.18 -855.15,855.15 0,471.97 383.18,855.15 855.15,855.15 315.42,0 593.46,-170.57 740.66,-427.58l-266.35 0 0 2.34zm0 0l0 0 0 0z"/>
    </clipPath>
  <radialGradient id="id2" gradientUnits="userSpaceOnUse" gradientTransform="matrix(1.57559 1.57559 -1.57559 1.57559 382 -878)" cx="413.42" cy="393.41" r="786.74" fx="413.42" fy="393.41">
   <stop offset="0" style="stop-opacity:1; stop-color:white"/>
   <stop offset="0.368627" style="stop-opacity:1; stop-color:#05BCE4"/>
   <stop offset="1" style="stop-opacity:1; stop-color:#003478"/>
  </radialGradient>
 </defs>
 <g id="Layer_x0020_1">
  <metadata id="CorelCorpID_0Corel-Layer"/>
  <rect class="fil0" width="4295.72" height="1778.81"/>
  <g id="_2816160275056">
   <g style="clip-path:url(#id0)">
    <polygon class="fil1" points="54.25,34.25 1659.42,34.25 1659.42,1744.56 54.25,1744.56 "/>
   </g>
   <g style="clip-path:url(#id1)">
    <g>
     <polygon id="_1" class="fil2" points="54.25,1744.56 1764.56,1744.56 1764.56,34.25 54.25,34.25 "/>
    </g>
   </g>
   <path class="fil3" d="M1383.72 1319.32c-7.02,7.01 -14.02,16.36 -23.37,23.36 -116.82,116.82 -275.71,186.91 -450.94,186.91 -177.57,0 -336.46,-72.42 -450.94,-186.91 -116.83,-116.82 -186.92,-275.7 -186.92,-450.94 0,-177.57 72.43,-336.45 186.92,-450.94 116.82,-116.82 275.7,-186.91 450.94,-186.91 177.57,0 336.45,72.43 450.94,186.91 14.02,14.02 25.7,28.04 37.39,42.06l261.68 0c-142.53,-268.69 -425.24,-448.61 -750.01,-448.61 -471.97,0 -855.15,383.18 -855.15,855.15 0,471.97 383.18,855.15 855.15,855.15 315.42,0 593.46,-170.57 740.66,-427.58l-266.35 0m0 2.34l0 0 0 0z"/>
   <polygon class="fil4" points="631.38,702.47 542.59,702.47 542.59,1102.01 631.38,1102.01 "/>
   <path class="fil4" d="M1035.59 950.15c0,107.47 -63.08,161.21 -170.57,161.21 -107.48,0 -170.57,-51.4 -170.57,-161.21l0 -247.67 88.79 0 0 247.67c0,44.39 11.68,86.45 81.78,86.45 63.09,0 81.78,-28.04 81.78,-86.45l0 -247.67 88.79 0 0 247.67z"/>
   <g>
    <path class="fil4" d="M1365.02 837.99c-4.67,-39.72 -44.39,-70.1 -86.45,-70.1 -79.44,0 -107.48,67.76 -107.48,137.86 0,67.75 30.38,133.18 107.48,133.18 53.74,0 84.11,-37.39 91.12,-88.79l84.11 0c-9.34,100.47 -77.11,163.56 -175.23,163.56 -123.84,0 -196.27,-93.46 -196.27,-207.94 0,-119.16 72.43,-210.29 196.27,-210.29 88.78,0 161.21,51.4 172.9,144.86l-86.44 0 0 -2.34zm0 0l0 0 0 0z"/>
   </g>
   <polygon class="fil4" points="1502.87,702.47 1589.32,702.47 1757.55,971.17 1757.55,702.47 1841.67,702.47 1841.67,1102.01 1752.88,1102.01 1586.99,835.66 1584.65,835.66 1584.65,1102.01 1502.87,1102.01 "/>
  </g>
  <path class="fil5" d="M2057.5 889.8l0 -84.06 45.96 0c32.71,0 47.21,15.73 47.21,42.24 0,25.67 -14.49,41.82 -47.21,41.82l-45.96 0zm152.79 -41.82c0,-50.1 -34.78,-89.44 -104.35,-89.44l-106.42 0 0 289.02 57.97 0 0 -110.97 48.45 0c74.53,0 104.35,-44.72 104.35,-88.61z"/>
  <path id="_1_0" class="fil5" d="M2237.21 902.64c0,86.54 63.35,147.41 146.58,147.41 64.18,0 116.35,-33.95 135.82,-93.58l-66.67 0c-13.66,28.16 -38.51,41.82 -69.56,41.82 -50.52,0 -86.54,-37.26 -86.54,-95.65 0,-58.8 36.02,-95.65 86.54,-95.65 31.06,0 55.9,13.67 69.56,41.41l66.67 0c-19.46,-59.21 -71.63,-93.58 -135.82,-93.58 -83.23,0 -146.58,61.28 -146.58,147.82z"/>
  <path id="_2" class="fil5" d="M2765.56 1047.56l61.28 0 -103.93 -289.44 -67.49 0 -103.93 289.44 60.87 0 19.05 -55.07 115.11 0 19.05 55.07zm-34.78 -101.45l-83.64 0 41.82 -120.91 41.82 120.91z"/>
  <polygon id="_3" class="fil4" points="2949.82,789.6 3028.91,789.6 3028.91,1047.56 3066.59,1047.56 3066.59,789.6 3145.26,789.6 3145.26,758.96 2949.82,758.96 "/>
  <path id="_4" class="fil4" d="M3406.96 933.69c0,-71.63 -50.1,-116.77 -114.7,-116.77 -64.18,0 -114.7,45.13 -114.7,116.77 0,72.05 48.86,117.6 113.04,117.6 64.6,0 116.35,-45.55 116.35,-117.6zm-190.89 0c0,-57.14 36.03,-84.06 75.78,-84.06 38.92,0 76.6,26.92 76.6,84.06 0,57.56 -38.51,84.47 -77.84,84.47 -39.34,0 -74.53,-26.91 -74.53,-84.47z"/>
  <path id="_5" class="fil4" d="M3671.96 933.69c0,-71.63 -50.1,-116.77 -114.7,-116.77 -64.18,0 -114.7,45.13 -114.7,116.77 0,72.05 48.86,117.6 113.04,117.6 64.6,0 116.35,-45.55 116.35,-117.6zm-190.89 0c0,-57.14 36.03,-84.06 75.78,-84.06 38.92,0 76.6,26.92 76.6,84.06 0,57.56 -38.51,84.47 -77.84,84.47 -39.34,0 -74.53,-26.91 -74.53,-84.47z"/>
  <polygon id="_6" class="fil4" points="3721.65,1047.56 3759.33,1047.56 3759.33,741.15 3721.65,741.15 "/>
  <polygon id="_7" class="fil4" points="3823.51,1047.56 3861.19,1047.56 3861.19,947.36 3950.21,1047.56 4001.56,1047.56 3894.31,933.69 4001.14,820.65 3948.55,820.65 3861.19,921.27 3861.19,741.15 3823.51,741.15 "/>
  <path id="_8" class="fil4" d="M4036.75 1047.56l37.68 0 0 -226.91 -37.68 0 0 226.91zm19.46 -263.76c13.67,0 24.85,-11.18 24.85,-25.67 0,-14.49 -11.18,-25.67 -24.85,-25.67 -14.49,0 -25.67,11.18 -25.67,25.67 0,14.49 11.18,25.67 25.67,25.67z"/>
  <path id="_9" class="fil4" d="M4146.89 985.45c0,45.55 22.77,62.11 62.94,62.11l33.95 0 0 -31.88 -27.74 0c-23.19,0 -31.47,-7.87 -31.47,-30.23l0 -133.74 59.21 0 0 -31.06 -59.21 0 0 -57.14 -37.68 0 0 57.14 -29.4 0 0 31.06 29.4 0 0 133.74z"/>
 </g>
</svg>
